<?xml version="1.0" encoding="utf-8"?><!-- Generator: Adobe Illustrator 15.0.0, SVG Export Plug-In . SVG Version: 6.00 Build 0)  --><!DOCTYPE svg PUBLIC "-//W3C//DTD SVG 1.1//EN" "http://www.w3.org/Graphics/SVG/1.1/DTD/svg11.dtd"><svg xmlns="http://www.w3.org/2000/svg" xmlns:xlink="http://www.w3.org/1999/xlink" viewBox="0 0 50 50" width="50px" height="50px"><path d="M42,5H32V3c0-1.654-1.346-3-3-3h-8c-1.654,0-3,1.346-3,3v2H8C7.448,5,7,5.448,7,6s0.448,1,1,1h1.085l3.611,40.515C12.821,48.908,14.004,50,15.391,50h19.216c1.387,0,2.57-1.092,2.695-2.485L40.915,7H42c0.553,0,1-0.448,1-1S42.553,5,42,5z M20,44c0,0.553-0.448,1-1,1s-1-0.447-1-1V11c0-0.552,0.448-1,1-1s1,0.448,1,1V44z M20,3c0-0.551,0.449-1,1-1h8c0.552,0,1,0.449,1,1v2H20V3z M26,44c0,0.553-0.448,1-1,1s-1-0.447-1-1V11c0-0.552,0.448-1,1-1s1,0.448,1,1V44z M32,44c0,0.553-0.447,1-1,1s-1-0.447-1-1V11c0-0.552,0.447-1,1-1s1,0.448,1,1V44z"/></svg>