<?xml version="1.0" encoding="iso-8859-1"?>
<!-- Generator: Adobe Illustrator 22.1.0, SVG Export Plug-In . SVG Version: 6.00 Build 0)  -->
<svg version="1.1" id="Layer_1" xmlns="http://www.w3.org/2000/svg" xmlns:xlink="http://www.w3.org/1999/xlink" x="0px" y="0px"
	 viewBox="0 0 100 100" style="enable-background:new 0 0 100 100;" xml:space="preserve">
<path d="M65.035,87H34.766C27.13,87,22,82.301,22,75.308V42.414l-4.707-4.707C17.105,37.52,17,37.265,17,37v-5c0-0.552,0.448-1,1-1
	h64c0.552,0,1,0.448,1,1v5c0,0.268-0.108,0.525-0.299,0.713L78,42.336v32.972C78,82.301,72.79,87,65.035,87z M19,36.586l4.707,4.707
	C23.895,41.48,24,41.735,24,42v33.308C24,82.461,29.8,85,34.766,85h30.269C70.093,85,76,82.461,76,75.308V41.917
	c0-0.268,0.108-0.525,0.299-0.713L81,36.581V33H19V36.586z"/>
<path d="M32,76.917c-1.654,0-3-1.346-3-3V70.5c0-0.276,0.224-0.5,0.5-0.5s0.5,0.224,0.5,0.5v3.417c0,1.103,0.897,2,2,2s2-0.897,2-2
	v-31c0-1.103-0.897-2-2-2s-2,0.897-2,2V60.5c0,0.276-0.224,0.5-0.5,0.5S29,60.776,29,60.5V42.917c0-1.654,1.346-3,3-3s3,1.346,3,3
	v31C35,75.571,33.654,76.917,32,76.917z"/>
<path d="M29.5,66c-0.276,0-0.5-0.224-0.5-0.5v-3c0-0.276,0.224-0.5,0.5-0.5s0.5,0.224,0.5,0.5v3C30,65.776,29.776,66,29.5,66z"/>
<path d="M44,77c-1.654,0-3-1.346-3-3V43c0-1.654,1.346-3,3-3s3,1.346,3,3v31C47,75.654,45.654,77,44,77z M44,41
	c-1.103,0-2,0.897-2,2v31c0,1.103,0.897,2,2,2s2-0.897,2-2V43C46,41.897,45.103,41,44,41z"/>
<path d="M56,77c-1.654,0-3-1.346-3-3V43c0-1.654,1.346-3,3-3s3,1.346,3,3v31C59,75.654,57.654,77,56,77z M56,41
	c-1.103,0-2,0.897-2,2v31c0,1.103,0.897,2,2,2s2-0.897,2-2V43C58,41.897,57.103,41,56,41z"/>
<path d="M68,77c-1.654,0-3-1.346-3-3V43c0-1.654,1.346-3,3-3s3,1.346,3,3v31C71,75.654,69.654,77,68,77z M68,41
	c-1.103,0-2,0.897-2,2v31c0,1.103,0.897,2,2,2s2-0.897,2-2V43C70,41.897,69.103,41,68,41z"/>
<path d="M82,33H18c-0.552,0-1-0.448-1-1v-0.237C17,23.628,20.785,20,29.272,20h41.455C79.215,20,83,23.628,83,31.763V32
	C83,32.552,82.552,33,82,33z M19.013,31h61.975c-0.216-6.38-3.237-9-10.26-9H29.272C22.25,22,19.229,24.62,19.013,31z"/>
<path d="M81.5,36h-63c-0.276,0-0.5-0.224-0.5-0.5s0.224-0.5,0.5-0.5h63c0.276,0,0.5,0.224,0.5,0.5S81.776,36,81.5,36z"/>
<path d="M75.5,82h-50c-0.276,0-0.5-0.224-0.5-0.5s0.224-0.5,0.5-0.5h50c0.276,0,0.5,0.224,0.5,0.5S75.776,82,75.5,82z"/>
<path d="M63,22H37c-0.552,0-1-0.448-1-1v-2.646C36,15.401,38.309,13,41.146,13h17.708C61.691,13,64,15.401,64,18.354V21
	C64,21.552,63.552,22,63,22z M38,20h24v-1.646C62,16.504,60.589,15,58.854,15H41.146C39.411,15,38,16.504,38,18.354V20z"/>
<path d="M72.5,29h-54c-0.276,0-0.5-0.224-0.5-0.5s0.224-0.5,0.5-0.5h54c0.276,0,0.5,0.224,0.5,0.5S72.776,29,72.5,29z"/>
<path d="M77,58.917c-0.552,0-1-0.448-1-1v-12c0-0.552,0.448-1,1-1c2.757,0,5,2.243,5,5v4C82,56.673,79.757,58.917,77,58.917z
	 M78,47.088v9.657c1.164-0.413,2-1.525,2-2.829v-4C80,48.613,79.164,47.5,78,47.088z"/>
<path d="M23,58.917c-2.757,0-5-2.243-5-5v-4c0-2.757,2.243-5,5-5c0.552,0,1,0.448,1,1v12C24,58.469,23.552,58.917,23,58.917z
	 M22,47.088c-1.164,0.413-2,1.525-2,2.829v4c0,1.304,0.836,2.416,2,2.829V47.088z"/>
<path d="M78.5,29h-3c-0.276,0-0.5-0.224-0.5-0.5s0.224-0.5,0.5-0.5h3c0.276,0,0.5,0.224,0.5,0.5S78.776,29,78.5,29z"/>
</svg>